STARTFONT 2.1
FONT -Adobe-Helvetica-Medium-R-Normal--34-240-100-100-P-176-ISO8859-2
SIZE 24 100 100
FONTBOUNDINGBOX 37 38 -5 -7
COMMENT $XConsortium: helvR24.bdf,v 1.7 95/01/26 17:55:38 gildea Exp $
COMMENT 
COMMENT +
COMMENT  Copyright 1984-1989, 1994 Adobe Systems Incorporated.
COMMENT  Copyright 1988, 1994 Digital Equipment Corporation.
COMMENT
COMMENT  Adobe is a trademark of Adobe Systems Incorporated which may be
COMMENT  registered in certain jurisdictions.
COMMENT  Permission to use these trademarks is hereby granted only in
COMMENT  association with the images described in this file.
COMMENT
COMMENT  Permission to use, copy, modify, distribute and sell this software
COMMENT  and its documentation for any purpose and without fee is hereby
COMMENT  granted, provided that the above copyright notices appear in all
COMMENT  copies and that both those copyright notices and this permission
COMMENT  notice appear in supporting documentation, and that the names of
COMMENT  Adobe Systems and Digital Equipment Corporation not be used in
COMMENT  advertising or publicity pertaining to distribution of the software
COMMENT  without specific, written prior permission.  Adobe Systems and
COMMENT  Digital Equipment Corporation make no representations about the
COMMENT  suitability of this software for any purpose.  It is provided "as
COMMENT  is" without express or implied warranty.
COMMENT -
COMMENT  
COMMENT  Translation to ISO8859-2 by Cub Soft;  Petr.Kolar@vslib.cz
COMMENT  
STARTPROPERTIES 28
FOUNDRY "Adobe"
FAMILY_NAME "Helvetica"
WEIGHT_NAME "Medium"
SLANT "R"
SETWIDTH_NAME "Normal"
ADD_STYLE_NAME ""
PIXEL_SIZE 34
POINT_SIZE 240
RESOLUTION_X 100
RESOLUTION_Y 100
SPACING "P"
AVERAGE_WIDTH 176
CHARSET_REGISTRY "ISO8859"
CHARSET_ENCODING "2"
CAP_HEIGHT 25
X_HEIGHT 18
FONT_ASCENT 28
FONT_DESCENT 7
FACE_NAME "Helvetica"

STARTCHAR space
ENCODING 32
SWIDTH 278 0
DWIDTH 9 0
BBX 1 1 0 0
BITMAP
00
ENDCHAR
STARTCHAR exclam
ENCODING 33
SWIDTH 278 0
DWIDTH 9 0
BBX 3 25 4 0
BITMAP
e0
e0
e0
e0
e0
e0
e0
e0
e0
e0
e0
e0
e0
e0
e0
e0
e0
40
40
00
00
e0
e0
e0
e0
ENDCHAR
STARTCHAR quotedbl
ENCODING 34
SWIDTH 355 0
DWIDTH 12 0
BBX 8 8 2 15
BITMAP
e7
e7
e7
e7
e7
e7
42
42
ENDCHAR
STARTCHAR numbersign
ENCODING 35
SWIDTH 556 0
DWIDTH 19 0
BBX 17 23 1 0
BITMAP
038700
038700
030600
030600
070e00
070e00
7fff80
7fff80
7fff80
0e1c00
0e1c00
0c1800
1c3800
1c3800
ffff00
ffff00
ffff00
387000
387000
306000
306000
70e000
70e000
ENDCHAR
STARTCHAR dollar
ENCODING 36
SWIDTH 556 0
DWIDTH 18 0
BBX 16 31 1 -4
BITMAP
0180
0180
0180
0ff0
1ff8
3dbc
718e
718e
e18e
e180
e180
7180
7d80
3fc0
1ff0
07fc
01fe
019e
018f
0187
e187
e187
718e
718e
3dbc
3ff8
0ff0
0180
0180
0180
0180
ENDCHAR
STARTCHAR percent
ENCODING 37
SWIDTH 889 0
DWIDTH 29 0
BBX 26 24 1 0
BITMAP
00003000
1f007000
7f806000
73c0e000
e0c0c000
c0e1c000
c0e18000
c0e38000
e0c30000
73c70000
7f860000
1f0e0000
000c0000
001c3e00
00187f80
0038f380
0030c1c0
0071c0c0
0061c0c0
00e1c0c0
00c0c1c0
01c0e380
01807f80
03803e00
ENDCHAR
STARTCHAR ampersand
ENCODING 38
SWIDTH 667 0
DWIDTH 22 0
BBX 18 23 2 0
BITMAP
07c000
0fe000
1e7000
3c3800
383800
383800
3c7000
1ef000
0fe000
07c000
0f8000
3fc000
79c700
70e700
e0f600
e07e00
e03c00
e01c00
f03e00
787f00
7ff780
3fe3c0
0f0000
ENDCHAR
STARTCHAR apostrophe
ENCODING 39
SWIDTH 222 0
DWIDTH 7 0
BBX 3 7 2 18
BITMAP
e0
e0
e0
e0
20
60
c0
ENDCHAR
STARTCHAR parenleft
ENCODING 40
SWIDTH 333 0
DWIDTH 11 0
BBX 7 31 2 -7
BITMAP
06
0c
0c
18
18
38
30
70
70
70
60
e0
e0
e0
e0
e0
e0
e0
e0
e0
60
70
70
70
30
38
18
18
0c
0c
06
ENDCHAR
STARTCHAR parenright
ENCODING 41
SWIDTH 333 0
DWIDTH 11 0
BBX 7 31 1 -7
BITMAP
c0
60
60
30
30
38
18
1c
1c
1c
0c
0e
0e
0e
0e
0e
0e
0e
0e
0c
0c
1c
1c
18
18
38
30
70
60
60
c0
ENDCHAR
STARTCHAR asterisk
ENCODING 42
SWIDTH 389 0
DWIDTH 13 0
BBX 10 11 1 15
BITMAP
0c00
0c00
4c80
edc0
7f80
3f00
1e00
3f00
7380
e1c0
4080
ENDCHAR
STARTCHAR plus
ENCODING 43
SWIDTH 584 0
DWIDTH 19 0
BBX 17 16 1 1
BITMAP
01c000
01c000
01c000
01c000
01c000
01c000
01c000
ffff80
ffff80
ffff80
01c000
01c000
01c000
01c000
01c000
01c000
ENDCHAR
STARTCHAR comma
ENCODING 44
SWIDTH 278 0
DWIDTH 9 0
BBX 3 9 3 -5
BITMAP
e0
e0
e0
e0
20
60
60
c0
80
ENDCHAR
STARTCHAR minus
ENCODING 45
SWIDTH 584 0
DWIDTH 19 0
BBX 16 3 1 7
BITMAP
ffff
ffff
ffff
ENDCHAR
STARTCHAR period
ENCODING 46
SWIDTH 278 0
DWIDTH 9 0
BBX 3 4 3 0
BITMAP
e0
e0
e0
e0
ENDCHAR
STARTCHAR slash
ENCODING 47
SWIDTH 278 0
DWIDTH 9 0
BBX 9 24 0 0
BITMAP
0180
0180
0180
0300
0300
0300
0600
0600
0600
0c00
0c00
0c00
0800
1800
1800
1800
3000
3000
3000
6000
6000
6000
c000
c000
ENDCHAR
STARTCHAR zero
ENCODING 48
SWIDTH 556 0
DWIDTH 18 0
BBX 15 24 1 0
BITMAP
07c0
1ff0
3ff8
3c78
783c
701c
701c
e00e
e00e
e00e
e00e
e00e
e00e
e00e
e00e
e00e
e00e
701c
701c
703c
3c78
3ff8
1ff0
07c0
ENDCHAR
STARTCHAR one
ENCODING 49
SWIDTH 556 0
DWIDTH 18 0
BBX 8 24 3 0
BITMAP
03
07
07
0f
3f
ff
ff
07
07
07
07
07
07
07
07
07
07
07
07
07
07
07
07
07
ENDCHAR
STARTCHAR two
ENCODING 50
SWIDTH 556 0
DWIDTH 18 0
BBX 15 24 1 0
BITMAP
07c0
1ff0
3ff8
783c
701c
f00e
e00e
e00e
000e
001c
003c
0078
00f0
03e0
07c0
1f00
3c00
7800
7000
e000
e000
fffe
fffe
fffe
ENDCHAR
STARTCHAR three
ENCODING 51
SWIDTH 556 0
DWIDTH 18 0
BBX 15 24 1 0
BITMAP
07c0
1ff0
3ff8
3838
701c
701c
701c
701c
001c
0038
03f8
03f0
03f8
003c
001e
000e
e00e
e00e
e00e
701c
783c
3ff8
1ff0
07c0
ENDCHAR
STARTCHAR four
ENCODING 52
SWIDTH 556 0
DWIDTH 18 0
BBX 16 24 0 0
BITMAP
0018
0038
0078
0078
00f8
01f8
03b8
03b8
0738
0e38
0e38
1c38
3838
3838
7038
e038
ffff
ffff
ffff
0038
0038
0038
0038
0038
ENDCHAR
STARTCHAR five
ENCODING 53
SWIDTH 556 0
DWIDTH 18 0
BBX 15 24 1 0
BITMAP
3ffc
3ffc
3ffc
3800
3800
3800
7000
7000
77c0
7ff0
7ff8
787c
701c
001e
000e
000e
000e
e00e
e01e
f01c
787c
7ff8
3ff0
0f80
ENDCHAR
STARTCHAR six
ENCODING 54
SWIDTH 556 0
DWIDTH 18 0
BBX 15 24 1 0
BITMAP
03c0
0ff0
1ff8
3c38
381c
701c
7000
7000
6000
e3c0
eff0
fff8
f83c
f01c
f00e
e00e
e00e
600e
700e
701c
383c
3ff8
1ff0
07c0
ENDCHAR
STARTCHAR seven
ENCODING 55
SWIDTH 556 0
DWIDTH 18 0
BBX 15 24 1 0
BITMAP
fffe
fffe
fffe
000e
001c
0018
0038
0070
0070
00e0
00e0
01c0
01c0
0380
0380
0700
0700
0700
0e00
0e00
0e00
1c00
1c00
1c00
ENDCHAR
STARTCHAR eight
ENCODING 56
SWIDTH 556 0
DWIDTH 18 0
BBX 15 24 1 0
BITMAP
07c0
1ff0
3ff8
383c
701c
701c
701c
701c
783c
3c78
1ff0
0fe0
3ff8
783c
701c
e00e
e00e
e00e
e00e
f01c
783c
3ff8
1ff0
07c0
ENDCHAR
STARTCHAR nine
ENCODING 57
SWIDTH 556 0
DWIDTH 18 0
BBX 15 24 1 0
BITMAP
07c0
1ff0
3ff8
787c
703c
f01c
e01e
e00e
e00e
e00e
e01e
e01e
703e
7ffe
3fee
0fce
000e
001c
e01c
f03c
7878
3ff0
3fe0
0f80
ENDCHAR
STARTCHAR colon
ENCODING 58
SWIDTH 278 0
DWIDTH 9 0
BBX 3 18 4 0
BITMAP
e0
e0
e0
e0
00
00
00
00
00
00
00
00
00
00
e0
e0
e0
e0
ENDCHAR
STARTCHAR semicolon
ENCODING 59
SWIDTH 278 0
DWIDTH 9 0
BBX 3 22 4 -5
BITMAP
e0
e0
e0
e0
00
00
00
00
00
00
00
00
00
e0
e0
e0
e0
20
60
60
c0
80
ENDCHAR
STARTCHAR less
ENCODING 60
SWIDTH 584 0
DWIDTH 19 0
BBX 16 16 2 0
BITMAP
0003
000f
003f
01fc
07e0
1f80
fe00
f000
f000
fe00
1f80
07e0
01fc
007f
000f
0003
ENDCHAR
STARTCHAR equal
ENCODING 61
SWIDTH 584 0
DWIDTH 19 0
BBX 15 9 2 4
BITMAP
fffe
fffe
fffe
0000
0000
0000
fffe
fffe
fffe
ENDCHAR
STARTCHAR greater
ENCODING 62
SWIDTH 584 0
DWIDTH 19 0
BBX 16 16 1 0
BITMAP
c000
f000
fe00
3f80
07e0
01f8
007f
000f
000f
007f
01f8
07e0
3f80
fe00
f000
c000
ENDCHAR
STARTCHAR question
ENCODING 63
SWIDTH 556 0
DWIDTH 18 0
BBX 14 25 2 0
BITMAP
07c0
1ff0
3ff8
7838
701c
f01c
e01c
e01c
001c
0038
0038
0070
00e0
01e0
01c0
0380
0380
0380
0380
0000
0000
0380
0380
0380
0380
ENDCHAR
STARTCHAR at
ENCODING 64
SWIDTH 1015 0
DWIDTH 34 0
BBX 29 30 1 -5
BITMAP
0007c000
003ff800
00fffe00
03f03f80
07c007c0
0f0003e0
1e0001e0
1c0000f0
380f8c70
381fdc38
703cfc38
70707c38
60e03818
e0e03818
e1e03818
e1c07038
e1c07038
e1c07070
e1c0e070
e1e0e0e0
70f3f3c0
70ff7f80
783e7f00
3c000000
1e000000
1f000000
0f800000
03e07800
01fff800
007fe000
ENDCHAR
STARTCHAR A
ENCODING 65
SWIDTH 667 0
DWIDTH 22 0
BBX 20 25 1 0
BITMAP
00f000
00f000
00f800
01f800
01f800
039c00
039c00
039c00
079e00
070e00
070e00
0f0f00
0f0f00
0e0700
1e0780
1fff80
1fff80
3fffc0
3c03c0
3801c0
7801e0
7801e0
7000e0
f000f0
f000f0
ENDCHAR
STARTCHAR B
ENCODING 66
SWIDTH 667 0
DWIDTH 22 0
BBX 17 25 3 0
BITMAP
fff000
fffc00
fffe00
e03e00
e00f00
e00f00
e00700
e00700
e00f00
e00e00
e03e00
fffc00
fffc00
fffe00
e01f00
e00780
e00380
e00380
e00380
e00380
e00780
e00f00
fffe00
fffe00
fff800
ENDCHAR
STARTCHAR C
ENCODING 67
SWIDTH 722 0
DWIDTH 24 0
BBX 20 25 2 0
BITMAP
01fc00
07ff00
0fff80
1f07c0
3c01e0
3800e0
7000f0
700070
e00000
e00000
e00000
e00000
e00000
e00000
e00000
e00000
e00070
f00070
7000f0
7800e0
3c01e0
3f07c0
1fff80
07fe00
01f800
ENDCHAR
STARTCHAR D
ENCODING 68
SWIDTH 722 0
DWIDTH 24 0
BBX 18 25 3 0
BITMAP
fff000
fffc00
fffe00
e01f00
e00f00
e00780
e00380
e00380
e001c0
e001c0
e001c0
e001c0
e001c0
e001c0
e001c0
e001c0
e003c0
e00380
e00380
e00780
e00f00
e01e00
fffe00
fffc00
fff000
ENDCHAR
STARTCHAR E
ENCODING 69
SWIDTH 667 0
DWIDTH 22 0
BBX 17 25 3 0
BITMAP
ffff00
ffff00
ffff00
e00000
e00000
e00000
e00000
e00000
e00000
e00000
e00000
ffff00
ffff00
ffff00
e00000
e00000
e00000
e00000
e00000
e00000
e00000
e00000
ffff80
ffff80
ffff80
ENDCHAR
STARTCHAR F
ENCODING 70
SWIDTH 611 0
DWIDTH 20 0
BBX 16 25 3 0
BITMAP
ffff
ffff
ffff
e000
e000
e000
e000
e000
e000
e000
e000
fffc
fffc
fffc
e000
e000
e000
e000
e000
e000
e000
e000
e000
e000
e000
ENDCHAR
STARTCHAR G
ENCODING 71
SWIDTH 778 0
DWIDTH 25 0
BBX 22 25 1 0
BITMAP
00fe00
03ff80
0fffc0
1f83f0
3e00f0
3c0078
780038
700038
f00000
e00000
e00000
e00000
e00ffc
e00ffc
e00ffc
e0001c
f0001c
70001c
78003c
38003c
3c00fc
1f01fc
0fffdc
07ff1c
01fc1c
ENDCHAR
STARTCHAR H
ENCODING 72
SWIDTH 722 0
DWIDTH 24 0
BBX 18 25 3 0
BITMAP
e001c0
e001c0
e001c0
e001c0
e001c0
e001c0
e001c0
e001c0
e001c0
e001c0
e001c0
ffffc0
ffffc0
ffffc0
e001c0
e001c0
e001c0
e001c0
e001c0
e001c0
e001c0
e001c0
e001c0
e001c0
e001c0
ENDCHAR
STARTCHAR I
ENCODING 73
SWIDTH 278 0
DWIDTH 9 0
BBX 3 25 3 0
BITMAP
e0
e0
e0
e0
e0
e0
e0
e0
e0
e0
e0
e0
e0
e0
e0
e0
e0
e0
e0
e0
e0
e0
e0
e0
e0
ENDCHAR
STARTCHAR J
ENCODING 74
SWIDTH 500 0
DWIDTH 16 0
BBX 13 25 1 0
BITMAP
0038
0038
0038
0038
0038
0038
0038
0038
0038
0038
0038
0038
0038
0038
0038
0038
e038
e038
e038
e038
f078
78f0
7ff0
3fe0
1f80
ENDCHAR
STARTCHAR K
ENCODING 75
SWIDTH 667 0
DWIDTH 22 0
BBX 20 25 3 0
BITMAP
e003c0
e00780
e00f00
e01e00
e03c00
e07800
e0f000
e1e000
e3c000
e7c000
ef8000
ffc000
ffc000
f9e000
f0f000
e07000
e07800
e03c00
e01c00
e01e00
e00f00
e00780
e003c0
e003e0
e001f0
ENDCHAR
STARTCHAR L
ENCODING 76
SWIDTH 556 0
DWIDTH 18 0
BBX 14 25 3 0
BITMAP
e000
e000
e000
e000
e000
e000
e000
e000
e000
e000
e000
e000
e000
e000
e000
e000
e000
e000
e000
e000
e000
e000
fffc
fffc
fffc
ENDCHAR
STARTCHAR M
ENCODING 77
SWIDTH 833 0
DWIDTH 27 0
BBX 21 25 3 0
BITMAP
f00078
f00078
f800f8
f800f8
fc01f8
fc01f8
fc01f8
ec01b8
ee03b8
ee03b8
e60338
e70738
e70738
e30638
e38e38
e38e38
e38e38
e18c38
e1dc38
e1dc38
e0d838
e0f838
e0f838
e07038
e07038
ENDCHAR
STARTCHAR N
ENCODING 78
SWIDTH 722 0
DWIDTH 24 0
BBX 19 25 2 0
BITMAP
f000e0
f000e0
f800e0
fc00e0
fc00e0
fe00e0
ef00e0
e700e0
e780e0
e3c0e0
e3c0e0
e1e0e0
e0e0e0
e0f0e0
e078e0
e038e0
e03ce0
e01ce0
e01ee0
e00fe0
e007e0
e007e0
e003e0
e001e0
e001e0
ENDCHAR
STARTCHAR O
ENCODING 79
SWIDTH 778 0
DWIDTH 25 0
BBX 23 25 1 0
BITMAP
00fe00
03ff80
0fefe0
1f01f0
3e00f8
3c0078
78003c
70001c
f0001e
e0000e
e0000e
e0000e
e0000e
e0000e
e0000e
e0000e
f0001e
f0001e
78003c
3c0078
3e00f8
1f01f0
0fefe0
03ff80
00fe00
ENDCHAR
STARTCHAR P
ENCODING 80
SWIDTH 667 0
DWIDTH 22 0
BBX 17 25 3 0
BITMAP
fff800
fffe00
ffff00
e00f00
e00780
e00380
e00380
e00380
e00380
e00380
e00780
e00f00
ffff00
fffe00
fff800
e00000
e00000
e00000
e00000
e00000
e00000
e00000
e00000
e00000
e00000
ENDCHAR
STARTCHAR Q
ENCODING 81
SWIDTH 778 0
DWIDTH 26 0
BBX 23 26 1 -1
BITMAP
00fe00
03ff80
0fefe0
1f01f0
3e00f8
3c0078
78003c
70001c
f0001e
e0000e
e0000e
e0000e
e0000e
e0000e
e0000e
e0000e
f0001e
f0021e
78073c
3c07b8
3e03f8
1f01f0
0feff8
03ffbc
00fe1e
00000c
ENDCHAR
STARTCHAR R
ENCODING 82
SWIDTH 722 0
DWIDTH 24 0
BBX 19 25 3 0
BITMAP
fffc00
ffff00
ffff80
e00780
e003c0
e001c0
e001c0
e001c0
e001c0
e003c0
e00380
e00f80
ffff00
fffe00
ffff00
e00f80
e00780
e00380
e003c0
e003c0
e003c0
e001c0
e001c0
e001c0
e001e0
ENDCHAR
STARTCHAR S
ENCODING 83
SWIDTH 667 0
DWIDTH 22 0
BBX 19 25 1 0
BITMAP
03f800
0ffe00
1fff00
3c0f80
3803c0
7001c0
7001c0
700000
780000
7c0000
3fc000
1ff800
07ff00
007f80
000fc0
0001e0
0000e0
e000e0
f000e0
7001e0
7801c0
3e07c0
3fff80
0ffe00
03f800
ENDCHAR
STARTCHAR T
ENCODING 84
SWIDTH 611 0
DWIDTH 20 0
BBX 19 25 0 0
BITMAP
ffffe0
ffffe0
ffffe0
00e000
00e000
00e000
00e000
00e000
00e000
00e000
00e000
00e000
00e000
00e000
00e000
00e000
00e000
00e000
00e000
00e000
00e000
00e000
00e000
00e000
00e000
ENDCHAR
STARTCHAR U
ENCODING 85
SWIDTH 722 0
DWIDTH 24 0
BBX 18 25 3 0
BITMAP
e001c0
e001c0
e001c0
e001c0
e001c0
e001c0
e001c0
e001c0
e001c0
e001c0
e001c0
e001c0
e001c0
e001c0
e001c0
e001c0
e001c0
e001c0
e001c0
f003c0
780780
7c0f80
3fff00
1ffe00
03f000
ENDCHAR
STARTCHAR V
ENCODING 86
SWIDTH 667 0
DWIDTH 22 0
BBX 19 25 1 0
BITMAP
f001e0
f001e0
f001e0
7001c0
7803c0
7803c0
380380
380380
3c0780
1c0700
1c0700
1e0f00
0e0e00
0e0e00
0f0e00
071c00
071c00
079c00
03b800
03b800
03b800
01f000
01f000
00e000
00e000
ENDCHAR
STARTCHAR W
ENCODING 87
SWIDTH 944 0
DWIDTH 31 0
BBX 29 25 1 0
BITMAP
f0070078
f0070078
f00f8078
700f8070
700f8070
781dc0f0
781dc0f0
381dc0e0
381dc0e0
3838e0e0
3c38e1e0
1c38e1c0
1c30e1c0
1c7071c0
1c7071c0
0e707380
0ee03b80
0ee03b80
0ee03b80
07e03f80
07c01f00
07c01f00
07c01f00
03800e00
03800e00
ENDCHAR
STARTCHAR X
ENCODING 88
SWIDTH 667 0
DWIDTH 22 0
BBX 20 25 1 0
BITMAP
f800f0
7801e0
3c03c0
1c03c0
1e0780
0f0700
0f0f00
079e00
039c00
03fc00
01f800
00f000
00f000
01f800
01f800
039c00
079e00
070e00
0f0f00
1e0780
1e0780
3c03c0
7801e0
7801e0
f000f0
ENDCHAR
STARTCHAR Y
ENCODING 89
SWIDTH 667 0
DWIDTH 22 0
BBX 21 25 0 0
BITMAP
f00078
7800f0
7800e0
3c01e0
1c01c0
1e03c0
0e0780
0f0780
078f00
038e00
03de00
01dc00
01fc00
00f800
00f800
007000
007000
007000
007000
007000
007000
007000
007000
007000
007000
ENDCHAR
STARTCHAR Z
ENCODING 90
SWIDTH 611 0
DWIDTH 20 0
BBX 18 25 1 0
BITMAP
7fffc0
7fffc0
7fffc0
000780
000f80
000f00
001e00
003c00
003c00
007800
00f000
01e000
01e000
03c000
078000
078000
0f0000
1e0000
3c0000
3c0000
780000
f00000
ffffc0
ffffc0
ffffc0
ENDCHAR
STARTCHAR bracketleft
ENCODING 91
SWIDTH 278 0
DWIDTH 9 0
BBX 6 32 2 -7
BITMAP
fc
fc
e0
e0
e0
e0
e0
e0
e0
e0
e0
e0
e0
e0
e0
e0
e0
e0
e0
e0
e0
e0
e0
e0
e0
e0
e0
e0
e0
e0
fc
fc
ENDCHAR
STARTCHAR backslash
ENCODING 92
SWIDTH 278 0
DWIDTH 9 0
BBX 9 24 0 0
BITMAP
c000
c000
6000
6000
6000
3000
3000
3000
1000
1800
1800
1800
0c00
0c00
0c00
0600
0600
0600
0200
0300
0300
0300
0180
0180
ENDCHAR
STARTCHAR bracketright
ENCODING 93
SWIDTH 278 0
DWIDTH 9 0
BBX 6 32 1 -7
BITMAP
fc
fc
1c
1c
1c
1c
1c
1c
1c
1c
1c
1c
1c
1c
1c
1c
1c
1c
1c
1c
1c
1c
1c
1c
1c
1c
1c
1c
1c
1c
fc
fc
ENDCHAR
STARTCHAR asciicircum
ENCODING 94
SWIDTH 469 0
DWIDTH 16 0
BBX 12 13 1 11
BITMAP
0600
0f00
0f00
1f80
1980
1980
39c0
30c0
70e0
6060
6060
e070
c030
ENDCHAR
STARTCHAR underscore
ENCODING 95
SWIDTH 556 0
DWIDTH 18 0
BBX 18 2 0 -6
BITMAP
ffffc0
ffffc0
ENDCHAR
STARTCHAR grave
ENCODING 96
SWIDTH 333 0
DWIDTH 11 0
BBX 6 5 1 20
BITMAP
e0
f0
70
38
1c
ENDCHAR
STARTCHAR a
ENCODING 97
SWIDTH 556 0
DWIDTH 18 0
BBX 16 18 1 0
BITMAP
0fe0
3ff8
3c78
703c
701c
001c
003c
01fc
1ffc
7e1c
781c
f01c
e01c
e03c
e07c
79fe
7fdf
3f8f
ENDCHAR
STARTCHAR b
ENCODING 98
SWIDTH 556 0
DWIDTH 18 0
BBX 15 25 2 0
BITMAP
e000
e000
e000
e000
e000
e000
e000
e3e0
eff0
fff8
f83c
f01c
f01e
e00e
e00e
e00e
e00e
e00e
e00e
f01e
f01c
fc3c
fff8
eff0
e7e0
ENDCHAR
STARTCHAR c
ENCODING 99
SWIDTH 500 0
DWIDTH 16 0
BBX 14 18 1 0
BITMAP
07c0
1ff0
3ff8
383c
701c
701c
e000
e000
e000
e000
e000
e01c
e01c
701c
7838
3ff8
1ff0
07c0
ENDCHAR
STARTCHAR d
ENCODING 100
SWIDTH 556 0
DWIDTH 18 0
BBX 15 25 1 0
BITMAP
000e
000e
000e
000e
000e
000e
000e
07ce
1fee
3ffe
7c3e
701e
f01e
e00e
e00e
e00e
e00e
e00e
e00e
f01e
f01e
783e
7ffe
3fee
0fce
ENDCHAR
STARTCHAR e
ENCODING 101
SWIDTH 556 0
DWIDTH 18 0
BBX 15 18 2 0
BITMAP
07c0
1ff0
3ff8
783c
701c
f00e
e00e
e00e
fffe
fffe
e000
e000
f00e
701e
783c
3ff8
1ff0
07c0
ENDCHAR
STARTCHAR f
ENCODING 102
SWIDTH 278 0
DWIDTH 9 0
BBX 8 25 1 0
BITMAP
0f
1f
3c
38
38
38
38
ff
ff
ff
38
38
38
38
38
38
38
38
38
38
38
38
38
38
38
ENDCHAR
STARTCHAR g
ENCODING 103
SWIDTH 556 0
DWIDTH 18 0
BBX 15 25 1 -7
BITMAP
07ce
1fee
3ffe
7c3e
701e
f01e
e00e
e00e
e00e
e00e
e00e
e00e
f01e
703e
783e
3ffe
1fee
078e
000e
e00e
e01c
f01c
7c78
3ff8
1fe0
ENDCHAR
STARTCHAR h
ENCODING 104
SWIDTH 556 0
DWIDTH 18 0
BBX 14 25 2 0
BITMAP
e000
e000
e000
e000
e000
e000
e000
e3e0
eff0
fff8
f83c
f01c
e01c
e01c
e01c
e01c
e01c
e01c
e01c
e01c
e01c
e01c
e01c
e01c
e01c
ENDCHAR
STARTCHAR i
ENCODING 105
SWIDTH 222 0
DWIDTH 7 0
BBX 3 25 2 0
BITMAP
e0
e0
e0
e0
00
00
00
e0
e0
e0
e0
e0
e0
e0
e0
e0
e0
e0
e0
e0
e0
e0
e0
e0
e0
ENDCHAR
STARTCHAR j
ENCODING 106
SWIDTH 222 0
DWIDTH 7 0
BBX 6 32 -1 -7
BITMAP
1c
1c
1c
1c
00
00
00
1c
1c
1c
1c
1c
1c
1c
1c
1c
1c
1c
1c
1c
1c
1c
1c
1c
1c
1c
1c
1c
1c
3c
fc
f8
ENDCHAR
STARTCHAR k
ENCODING 107
SWIDTH 500 0
DWIDTH 16 0
BBX 15 25 1 0
BITMAP
e000
e000
e000
e000
e000
e000
e000
e078
e0f0
e1e0
e3c0
e780
ef00
ff00
ff00
fb80
f3c0
e1c0
e1e0
e0e0
e0f0
e078
e038
e03c
e01e
ENDCHAR
STARTCHAR l
ENCODING 108
SWIDTH 222 0
DWIDTH 7 0
BBX 3 25 2 0
BITMAP
e0
e0
e0
e0
e0
e0
e0
e0
e0
e0
e0
e0
e0
e0
e0
e0
e0
e0
e0
e0
e0
e0
e0
e0
e0
ENDCHAR
STARTCHAR m
ENCODING 109
SWIDTH 833 0
DWIDTH 27 0
BBX 23 18 2 0
BITMAP
e3c0f0
eff3fc
fff7fc
f87e1e
f03c0e
e0380e
e0380e
e0380e
e0380e
e0380e
e0380e
e0380e
e0380e
e0380e
e0380e
e0380e
e0380e
e0380e
ENDCHAR
STARTCHAR n
ENCODING 110
SWIDTH 556 0
DWIDTH 18 0
BBX 14 18 2 0
BITMAP
e3e0
eff8
fff8
f83c
f01c
e01c
e01c
e01c
e01c
e01c
e01c
e01c
e01c
e01c
e01c
e01c
e01c
e01c
ENDCHAR
STARTCHAR o
ENCODING 111
SWIDTH 556 0
DWIDTH 18 0
BBX 15 18 1 0
BITMAP
07c0
1ff0
3ff8
783c
701c
f01e
e00e
e00e
e00e
e00e
e00e
e00e
f01e
701c
783c
3ff8
1ff0
07c0
ENDCHAR
STARTCHAR p
ENCODING 112
SWIDTH 556 0
DWIDTH 18 0
BBX 15 25 2 -7
BITMAP
03c0
eff0
fff8
f83c
f01c
f01e
e00e
e00e
e00e
e00e
e00e
e00e
f01e
f01c
f83c
fff8
eff0
e7e0
e000
e000
e000
e000
e000
e000
e000
ENDCHAR
STARTCHAR q
ENCODING 113
SWIDTH 556 0
DWIDTH 18 0
BBX 15 25 1 -7
BITMAP
07c0
1fee
3ffe
7c3e
701e
f01e
e00e
e00e
e00e
e00e
e00e
e00e
f01e
701e
783e
3ffe
1fee
0fce
000e
000e
000e
000e
000e
000e
000e
ENDCHAR
STARTCHAR r
ENCODING 114
SWIDTH 333 0
DWIDTH 11 0
BBX 8 18 2 0
BITMAP
e7
ef
ff
fc
f0
f0
e0
e0
e0
e0
e0
e0
e0
e0
e0
e0
e0
e0
ENDCHAR
STARTCHAR s
ENCODING 115
SWIDTH 500 0
DWIDTH 16 0
BBX 13 18 2 0
BITMAP
0f80
3fe0
7fe0
70f0
e070
e000
7000
7e00
3fc0
07f0
00f0
0078
e038
e038
f070
7ff0
7fe0
1f80
ENDCHAR
STARTCHAR t
ENCODING 116
SWIDTH 278 0
DWIDTH 9 0
BBX 8 22 1 0
BITMAP
38
38
38
38
ff
ff
ff
38
38
38
38
38
38
38
38
38
38
38
38
3c
3f
1f
ENDCHAR
STARTCHAR u
ENCODING 117
SWIDTH 556 0
DWIDTH 18 0
BBX 14 18 2 0
BITMAP
e01c
e01c
e01c
e01c
e01c
e01c
e01c
e01c
e01c
e01c
e01c
e01c
e01c
e03c
f07c
7ffc
7fdc
1f1c
ENDCHAR
STARTCHAR v
ENCODING 118
SWIDTH 500 0
DWIDTH 16 0
BBX 15 18 0 0
BITMAP
e00e
e00e
701c
701c
701c
3838
3838
3838
1c70
1c70
1c70
0ee0
0ee0
0ee0
07c0
07c0
0380
0380
ENDCHAR
STARTCHAR w
ENCODING 119
SWIDTH 722 0
DWIDTH 23 0
BBX 23 18 0 0
BITMAP
e0380e
e0380e
707c1c
707c1c
706c1c
38ee1c
38ee38
38ee38
38c638
18c630
1dc770
1dc770
1dc770
0d8360
0f83e0
0f83e0
0701c0
0701c0
ENDCHAR
STARTCHAR x
ENCODING 120
SWIDTH 500 0
DWIDTH 16 0
BBX 15 18 0 0
BITMAP
f01e
781c
3838
3c70
1c70
0ee0
0fe0
07c0
0380
07c0
07c0
0fe0
1ee0
1c70
3878
3838
701c
f01e
ENDCHAR
STARTCHAR y
ENCODING 121
SWIDTH 500 0
DWIDTH 16 0
BBX 14 25 1 -7
BITMAP
e01c
e01c
f038
7038
7038
7070
3870
3870
38e0
3ce0
1ce0
1dc0
1dc0
0fc0
0f80
0f80
0700
0700
0700
0e00
0e00
1c00
7c00
7800
7000
ENDCHAR
STARTCHAR z
ENCODING 122
SWIDTH 500 0
DWIDTH 16 0
BBX 14 18 1 0
BITMAP
7ff8
7ff8
7ff8
0078
00f0
00e0
01c0
03c0
0780
0700
0e00
1c00
3c00
7800
7000
fffc
fffc
fffc
ENDCHAR
STARTCHAR braceleft
ENCODING 123
SWIDTH 334 0
DWIDTH 11 0
BBX 8 32 1 -7
BITMAP
0f
1f
1c
18
18
18
18
18
18
18
18
18
38
38
70
e0
e0
70
38
38
18
18
18
18
18
18
18
18
18
1c
1f
0f
ENDCHAR
STARTCHAR bar
ENCODING 124
SWIDTH 260 0
DWIDTH 9 0
BBX 2 31 3 -7
BITMAP
c0
c0
c0
c0
c0
c0
c0
c0
c0
c0
c0
c0
c0
c0
c0
c0
c0
c0
c0
c0
c0
c0
c0
c0
c0
c0
c0
c0
c0
c0
c0
ENDCHAR
STARTCHAR braceright
ENCODING 125
SWIDTH 334 0
DWIDTH 11 0
BBX 8 32 1 -7
BITMAP
f0
f8
38
18
18
18
18
18
18
18
18
18
1c
1c
0e
07
07
0e
1c
1c
18
18
18
18
18
18
18
18
18
38
f8
f0
ENDCHAR
STARTCHAR asciitilde
ENCODING 126
SWIDTH 584 0
DWIDTH 19 0
BBX 14 6 2 9
BITMAP
1800
7c0c
7f0c
c7dc
c1f8
00f0
ENDCHAR
STARTCHAR nobreakspace
ENCODING 160
SWIDTH 278 0
DWIDTH 9 0
BBX 1 1 0 0
BITMAP
00
ENDCHAR
STARTCHAR Aogonek
ENCODING 161
SWIDTH 667 0
DWIDTH 22 0
BBX 20 32 1 -7
BITMAP
00f000
00f000
00f800
01f800
01f800
039c00
039c00
039c00
079e00
070e00
070e00
0f0f00
0f0f00
0e0700
1e0780
1fff80
1fff80
3fffc0
3c03c0
3801c0
7801e0
7801e0
7000e0
f000f0
f000f0
008000
018000
030000
030000
039800
01f800
00f000
ENDCHAR
STARTCHAR breve
ENCODING 162
SWIDTH 333 0
DWIDTH 11 0
BBX 9 4 1 20
BITMAP
8080
e180
7f00
3e00
ENDCHAR
STARTCHAR Lstroke
ENCODING 163
SWIDTH 556 0
DWIDTH 18 0
BBX 18 25 0 0
BITMAP
1c0000
1c0000
1c0000
1c0000
1c0000
1c0000
1c0000
1c4000
1dc000
1f8000
1e0000
1c0000
7c0000
fc0000
9c0000
1c0000
1c0000
1c0000
1c0000
1c0000
1c0000
1c0000
1fffc0
1fffc0
1fffc0
ENDCHAR
STARTCHAR currency
ENCODING 164
SWIDTH 556 0
DWIDTH 18 0
BBX 12 13 3 5
BITMAP
e630
fff0
7ff0
70e0
6060
e070
e070
e070
6060
70e0
7ff0
fff0
e630
ENDCHAR
STARTCHAR Lcaron
ENCODING 165
SWIDTH 556 0
DWIDTH 18 0
BBX 14 27 3 0
BITMAP
0e00
0e00
ee00
ee00
e200
e600
ec00
e000
e000
e000
e000
e000
e000
e000
e000
e000
e000
e000
e000
e000
e000
e000
e000
e000
fffc
fffc
fffc
ENDCHAR
STARTCHAR Sacute
ENCODING 166
SWIDTH 667 0
DWIDTH 22 0
BBX 19 31 1 0
BITMAP
001e00
003c00
003800
007000
00e000
000000
03f800
0ffe00
1fff00
3c0f80
3803c0
7001c0
7001c0
700000
780000
7c0000
3fc000
1ff800
07ff00
007f80
000fc0
0001e0
0000e0
e000e0
f000e0
7001e0
7801c0
3e07c0
3fff80
0ffe00
03f800
ENDCHAR
STARTCHAR section
ENCODING 167
SWIDTH 556 0
DWIDTH 18 0
BBX 15 32 1 -7
BITMAP
03c0
0ff0
1ff8
1c78
383c
381c
381c
3c00
1e00
1f80
3fe0
71f0
e0f8
e07c
e01c
e01e
700e
7c0e
3e0e
1f1c
0f9c
03f8
01f0
00f0
0078
7038
7038
7838
3870
3ff0
1fe0
0780
ENDCHAR
STARTCHAR diaeresis
ENCODING 168
SWIDTH 333 0
DWIDTH 11 0
BBX 8 3 1 22
BITMAP
e7
e7
e7
ENDCHAR
STARTCHAR Scaron
ENCODING 169
SWIDTH 667 0
DWIDTH 22 0
BBX 19 31 1 0
BITMAP
071c00
03b800
01f000
00e000
004000
000000
03f800
0ffe00
1fff00
3c0f80
3803c0
7001c0
7001c0
700000
780000
7c0000
3fc000
1ff800
07ff00
007f80
000fc0
0001e0
0000e0
e000e0
f000e0
7001e0
7801c0
3e07c0
3fff80
0ffe00
03f800
ENDCHAR
STARTCHAR Scedilla
ENCODING 170
SWIDTH 667 0
DWIDTH 22 0
BBX 19 32 1 -7
BITMAP
03f800
0ffe00
1fff00
3c0f80
3803c0
7001c0
7001c0
700000
780000
7c0000
3fc000
1ff800
07ff00
007f80
000fc0
0001e0
0000e0
e000e0
f000e0
7001e0
7801c0
3e07c0
3fff80
0ffe00
03f800
006000
006000
00f000
003800
001800
033800
01f000
ENDCHAR
STARTCHAR Tcaron
ENCODING 171
SWIDTH 611 0
DWIDTH 20 0
BBX 19 31 0 0
BITMAP
071c00
03b800
01f000
00e000
004000
000000
ffffe0
ffffe0
ffffe0
00e000
00e000
00e000
00e000
00e000
00e000
00e000
00e000
00e000
00e000
00e000
00e000
00e000
00e000
00e000
00e000
00e000
00e000
00e000
00e000
00e000
00e000
ENDCHAR
STARTCHAR Zacute
ENCODING 172
SWIDTH 611 0
DWIDTH 20 0
BBX 18 31 1 0
BITMAP
001e00
003c00
003800
007000
00e000
000000
7fffc0
7fffc0
7fffc0
000780
000f80
000f00
001e00
003c00
003c00
007800
00f000
01e000
01e000
03c000
078000
078000
0f0000
1e0000
3c0000
3c0000
780000
f00000
ffffc0
ffffc0
ffffc0
ENDCHAR
STARTCHAR hyphen
ENCODING 173
SWIDTH 333 0
DWIDTH 11 0
BBX 8 2 1 8
BITMAP
ff
ff
ENDCHAR
STARTCHAR Zcaron
ENCODING 174
SWIDTH 611 0
DWIDTH 20 0
BBX 18 31 1 0
BITMAP
071c00
03b800
01f000
00e000
004000
000000
7fffc0
7fffc0
7fffc0
000780
000f80
000f00
001e00
003c00
003c00
007800
00f000
01e000
01e000
03c000
078000
078000
0f0000
1e0000
3c0000
3c0000
780000
f00000
ffffc0
ffffc0
ffffc0
ENDCHAR
STARTCHAR Zabovedot
ENCODING 175
SWIDTH 611 0
DWIDTH 20 0
BBX 18 29 1 0
BITMAP
00e000
00e000
00e000
000000
7fffc0
7fffc0
7fffc0
000780
000f80
000f00
001e00
003c00
003c00
007800
00f000
01e000
01e000
03c000
078000
078000
0f0000
1e0000
3c0000
3c0000
780000
f00000
ffffc0
ffffc0
ffffc0
ENDCHAR
STARTCHAR degree
ENCODING 176
SWIDTH 400 0
DWIDTH 13 0
BBX 9 9 2 15
BITMAP
3e00
7f00
e380
c180
c180
c180
e380
7f00
3e00
ENDCHAR
STARTCHAR aogonek
ENCODING 177
SWIDTH 556 0
DWIDTH 18 0
BBX 16 25 1 -7
BITMAP
0fe0
3ff8
3c78
703c
701c
001c
003c
01fc
1ffc
7e1c
781c
f01c
e01c
e03c
e07c
79fe
7fdf
3f8f
0200
0600
0c00
0c00
0e60
07e0
03c0
ENDCHAR
STARTCHAR ogonek
ENCODING 178
SWIDTH 333 0
DWIDTH 11 0
BBX 7 7 2 -6
BITMAP
20
60
c0
c0
e6
7e
3c
ENDCHAR
STARTCHAR lstroke
ENCODING 179
SWIDTH 222 0
DWIDTH 7 0
BBX 7 25 0 0
BITMAP
38
38
38
38
38
38
38
38
38
3a
3e
3c
78
f8
38
38
38
38
38
38
38
38
38
38
38
ENDCHAR
STARTCHAR acute
ENCODING 180
SWIDTH 333 0
DWIDTH 11 0
BBX 7 5 3 22
BITMAP
1e
3c
38
70
e0
ENDCHAR
STARTCHAR lcaron
ENCODING 181
SWIDTH 330 0
DWIDTH 11 0
BBX 7 27 2 0
BITMAP
0e
0e
ee
ee
e2
e6
ec
e0
e0
e0
e0
e0
e0
e0
e0
e0
e0
e0
e0
e0
e0
e0
e0
e0
e0
e0
e0
ENDCHAR
STARTCHAR sacute
ENCODING 182
SWIDTH 500 0
DWIDTH 16 0
BBX 13 24 2 0
BITMAP
01e0
03c0
0380
0700
0e00
0000
0f80
3fe0
7fe0
70f0
e070
e000
7000
7e00
3fc0
07f0
00f0
0078
e038
e038
f070
7ff0
7fe0
1f80
ENDCHAR
STARTCHAR caron
ENCODING 183
SWIDTH 333 0
DWIDTH 11 0
BBX 9 5 1 20
BITMAP
e380
7700
3e00
1c00
0800
ENDCHAR
STARTCHAR cedilla
ENCODING 184
SWIDTH 333 0
DWIDTH 11 0
BBX 7 7 2 -7
BITMAP
18
18
3c
0e
06
ce
7c
ENDCHAR
STARTCHAR scaron
ENCODING 185
SWIDTH 500 0
DWIDTH 16 0
BBX 13 24 2 0
BITMAP
71c0
3b80
1f00
0e00
0400
0000
0f80
3fe0
7fe0
70f0
e070
e000
7000
7e00
3fc0
07f0
00f0
0078
e038
e038
f070
7ff0
7fe0
1f80
ENDCHAR
STARTCHAR scedilla
ENCODING 186
SWIDTH 500 0
DWIDTH 16 0
BBX 13 25 2 -7
BITMAP
0f80
3fe0
7fe0
70f0
e070
e000
7000
7e00
3fc0
07f0
00f0
0078
e038
e038
f070
7ff0
7fe0
1f80
0300
0300
0780
01c0
00c0
19c0
0f80
ENDCHAR
STARTCHAR tcaron
ENCODING 187
SWIDTH 300 0
DWIDTH 10 0
BBX 9 26 1 0
BITMAP
0380
0380
0380
0380
3880
3980
3b00
3800
ff00
ff00
ff00
3800
3800
3800
3800
3800
3800
3800
3800
3800
3800
3800
3800
3c00
3f00
1f00
ENDCHAR
STARTCHAR zacute
ENCODING 188
SWIDTH 500 0
DWIDTH 16 0
BBX 14 24 1 0
BITMAP
00f0
01e0
01c0
0380
0700
0000
7ff8
7ff8
7ff8
0078
00f0
00e0
01c0
03c0
0780
0700
0e00
1c00
3c00
7800
7000
fffc
fffc
fffc
ENDCHAR
STARTCHAR doubleacute
ENCODING 189
SWIDTH 333 0
DWIDTH 11 0
BBX 10 5 -1 20
BITMAP
39c0
39c0
7380
6300
c600
ENDCHAR
STARTCHAR zcaron
ENCODING 190
SWIDTH 500 0
DWIDTH 16 0
BBX 14 24 1 0
BITMAP
38e0
1dc0
0f80
0700
0200
0000
7ff8
7ff8
7ff8
0078
00f0
00e0
01c0
03c0
0780
0700
0e00
1c00
3c00
7800
7000
fffc
fffc
fffc
ENDCHAR
STARTCHAR zabovedot
ENCODING 191
SWIDTH 500 0
DWIDTH 16 0
BBX 14 22 1 0
BITMAP
0700
0700
0700
0000
7ff8
7ff8
7ff8
0078
00f0
00e0
01c0
03c0
0780
0700
0e00
1c00
3c00
7800
7000
fffc
fffc
fffc
ENDCHAR
STARTCHAR Racute
ENCODING 192
SWIDTH 722 0
DWIDTH 24 0
BBX 19 31 3 0
BITMAP
003c00
007800
007000
00e000
01c000
000000
fffc00
ffff00
ffff80
e00780
e003c0
e001c0
e001c0
e001c0
e001c0
e003c0
e00380
e00f80
ffff00
fffe00
ffff00
e00f80
e00780
e00380
e003c0
e003c0
e003c0
e001c0
e001c0
e001c0
e001e0
ENDCHAR
STARTCHAR Aacute
ENCODING 193
SWIDTH 667 0
DWIDTH 22 0
BBX 20 31 1 0
BITMAP
003c00
007800
007000
00e000
01c000
000000
00f000
00f000
00f000
01f800
01f800
03fc00
039c00
039c00
079e00
070e00
070e00
0f0f00
0f0f00
0e0700
1e0780
1fff80
1fff80
3fffc0
3c03c0
7801c0
7801e0
7801e0
7000e0
f000f0
f000f0
ENDCHAR
STARTCHAR Acircumflex
ENCODING 194
SWIDTH 667 0
DWIDTH 22 0
BBX 20 31 1 0
BITMAP
004000
00e000
01f000
03b800
071c00
000000
00f000
00f000
00f000
01f800
01f800
03fc00
039c00
039c00
079e00
070e00
070e00
0f0f00
0f0f00
0e0700
1e0780
1fff80
1fff80
3fffc0
3c03c0
3801c0
7801e0
7801e0
7000e0
f000f0
f000f0
ENDCHAR
STARTCHAR Abreve
ENCODING 195
SWIDTH 667 0
DWIDTH 22 0
BBX 20 30 1 0
BITMAP
020200
038600
01fc00
00f800
000000
00f000
00f000
00f800
01f800
01f800
039c00
039c00
039c00
079e00
070e00
070e00
0f0f00
0f0f00
0e0700
1e0780
1fff80
1fff80
3fffc0
3c03c0
3801c0
7801e0
7801e0
7000e0
f000f0
f000f0
ENDCHAR
STARTCHAR Adiaeresis
ENCODING 196
SWIDTH 667 0
DWIDTH 22 0
BBX 20 30 1 0
BITMAP
039c00
039c00
039c00
000000
000000
00f000
00f000
00f000
01f800
01f800
03fc00
039c00
039c00
079e00
070e00
070e00
0f0f00
0f0f00
0e0700
1e0780
1fff80
1fff80
3fffc0
3c03c0
3801c0
7801e0
7801e0
7000e0
f000f0
f000f0
ENDCHAR
STARTCHAR Lacute
ENCODING 197
SWIDTH 556 0
DWIDTH 18 0
BBX 14 31 3 0
BITMAP
1e00
3c00
3800
7000
e000
0000
e000
e000
e000
e000
e000
e000
e000
e000
e000
e000
e000
e000
e000
e000
e000
e000
e000
e000
e000
e000
e000
e000
fffc
fffc
fffc
ENDCHAR
STARTCHAR Cacute
ENCODING 198
SWIDTH 722 0
DWIDTH 24 0
BBX 20 31 2 0
BITMAP
000f00
001e00
001c00
003800
007000
000000
01fc00
07ff00
0fff80
1f07c0
3c01e0
3800e0
7000f0
700070
e00000
e00000
e00000
e00000
e00000
e00000
e00000
e00000
e00070
f00070
7000f0
7800e0
3c01e0
3f07c0
1fff80
07fe00
01f800
ENDCHAR
STARTCHAR Ccedilla
ENCODING 199
SWIDTH 722 0
DWIDTH 23 0
BBX 20 32 2 -7
BITMAP
01f800
07fe00
0fff80
1f0780
3c03c0
7801e0
7000e0
7000e0
f00000
f00000
e00000
e00000
e00000
e00000
e00000
f00070
f00070
7000f0
7000e0
7801e0
3c03c0
1f07c0
0fff80
07fe00
01f800
006000
006000
00f000
003800
001800
033800
01f000
ENDCHAR
STARTCHAR Ccaron
ENCODING 200
SWIDTH 722 0
DWIDTH 24 0
BBX 20 31 2 0
BITMAP
038e00
01dc00
00f800
007000
002000
000000
01fc00
07ff00
0fff80
1f07c0
3c01e0
3800e0
7000f0
700070
e00000
e00000
e00000
e00000
e00000
e00000
e00000
e00000
e00070
f00070
7000f0
7800e0
3c01e0
3f07c0
1fff80
07fe00
01f800
ENDCHAR
STARTCHAR Eacute
ENCODING 201
SWIDTH 667 0
DWIDTH 22 0
BBX 17 31 3 0
BITMAP
007800
00f000
00e000
01c000
038000
000000
ffff00
ffff00
ffff00
e00000
e00000
e00000
e00000
e00000
e00000
e00000
e00000
ffff00
ffff00
ffff00
e00000
e00000
e00000
e00000
e00000
e00000
e00000
e00000
ffff80
ffff80
ffff80
ENDCHAR
STARTCHAR Eogonek
ENCODING 202
SWIDTH 667 0
DWIDTH 22 0
BBX 17 32 3 -7
BITMAP
ffff00
ffff00
ffff00
e00000
e00000
e00000
e00000
e00000
e00000
e00000
e00000
ffff00
ffff00
ffff00
e00000
e00000
e00000
e00000
e00000
e00000
e00000
e00000
ffff80
ffff80
ffff80
010000
030000
060000
060000
073000
03f000
01e000
ENDCHAR
STARTCHAR Ediaeresis
ENCODING 203
SWIDTH 667 0
DWIDTH 22 0
BBX 17 30 3 0
BITMAP
1c3800
1c3800
1c3800
000000
000000
ffff00
ffff00
ffff00
e00000
e00000
e00000
e00000
e00000
e00000
e00000
e00000
ffff00
ffff00
ffff00
e00000
e00000
e00000
e00000
e00000
e00000
e00000
e00000
ffff80
ffff80
ffff80
ENDCHAR
STARTCHAR Ecaron
ENCODING 204
SWIDTH 667 0
DWIDTH 22 0
BBX 17 31 3 0
BITMAP
1c7000
0ee000
07c000
038000
010000
000000
ffff00
ffff00
ffff00
e00000
e00000
e00000
e00000
e00000
e00000
e00000
e00000
ffff00
ffff00
ffff00
e00000
e00000
e00000
e00000
e00000
e00000
e00000
e00000
ffff80
ffff80
ffff80
ENDCHAR
STARTCHAR Iacute
ENCODING 205
SWIDTH 278 0
DWIDTH 9 0
BBX 7 31 2 0
BITMAP
1e
3c
38
70
e0
00
70
70
70
70
70
70
70
70
70
70
70
70
70
70
70
70
70
70
70
70
70
70
70
70
70
ENDCHAR
STARTCHAR Icircumflex
ENCODING 206
SWIDTH 278 0
DWIDTH 9 0
BBX 9 31 0 0
BITMAP
0800
1c00
3e00
7700
e380
0000
1c00
1c00
1c00
1c00
1c00
1c00
1c00
1c00
1c00
1c00
1c00
1c00
1c00
1c00
1c00
1c00
1c00
1c00
1c00
1c00
1c00
1c00
1c00
1c00
1c00
ENDCHAR
STARTCHAR Dcaron
ENCODING 207
SWIDTH 722 0
DWIDTH 24 0
BBX 18 31 3 0
BITMAP
1c7000
0ee000
07c000
038000
010000
000000
fff000
fffc00
fffe00
e01f00
e00f00
e00780
e00380
e00380
e001c0
e001c0
e001c0
e001c0
e001c0
e001c0
e001c0
e001c0
e003c0
e00380
e00380
e00780
e00f00
e01e00
fffe00
fffc00
fff000
ENDCHAR
STARTCHAR Dstroke
ENCODING 208
SWIDTH 722 0
DWIDTH 23 0
BBX 21 25 0 0
BITMAP
1ffe00
1fff80
1fffc0
1c03e0
1c00e0
1c00f0
1c0070
1c0070
1c0038
1c0038
1c0038
ffc038
ffc038
1c0038
1c0038
1c0038
1c0078
1c0070
1c0070
1c00f0
1c00e0
1c03c0
1fffc0
1fff80
1ffe00
ENDCHAR
STARTCHAR Nacute
ENCODING 209
SWIDTH 722 0
DWIDTH 24 0
BBX 19 31 2 0
BITMAP
001e00
003c00
003800
007000
00e000
000000
f000e0
f000e0
f800e0
fc00e0
fc00e0
fe00e0
ef00e0
e700e0
e780e0
e3c0e0
e3c0e0
e1e0e0
e0e0e0
e0f0e0
e078e0
e038e0
e03ce0
e01ce0
e01ee0
e00fe0
e007e0
e007e0
e003e0
e001e0
e001e0
ENDCHAR
STARTCHAR Ncaron
ENCODING 210
SWIDTH 722 0
DWIDTH 24 0
BBX 19 31 2 0
BITMAP
071c00
03b800
01f000
00e000
004000
000000
f000e0
f000e0
f800e0
fc00e0
fc00e0
fe00e0
ef00e0
e700e0
e780e0
e3c0e0
e3c0e0
e1e0e0
e0e0e0
e0f0e0
e078e0
e038e0
e03ce0
e01ce0
e01ee0
e00fe0
e007e0
e007e0
e003e0
e001e0
e001e0
ENDCHAR
STARTCHAR Oacute
ENCODING 211
SWIDTH 778 0
DWIDTH 25 0
BBX 23 31 1 0
BITMAP
000f00
001e00
001c00
003800
007000
000000
00fe00
03ff80
0fffe0
1f01f0
3e00f8
3c0078
78003c
70001c
70001c
f0001e
e0000e
e0000e
e0000e
e0000e
e0000e
f0001e
f0001e
70001c
78003c
3c0078
3e00f8
1f01f0
0fffe0
03ff80
00fe00
ENDCHAR
STARTCHAR Ocircumflex
ENCODING 212
SWIDTH 778 0
DWIDTH 25 0
BBX 23 31 1 0
BITMAP
001000
003800
007c00
00ee00
01c700
000000
00fe00
03ff80
0fffe0
1f01f0
3e00f8
3c0078
78003c
70001c
70001c
f0001e
e0000e
e0000e
e0000e
e0000e
e0000e
f0001e
f0001e
70001c
78003c
3c0078
3e00f8
1f01f0
0fffe0
03ff80
00fe00
ENDCHAR
STARTCHAR Odoubleacute
ENCODING 213
SWIDTH 778 0
DWIDTH 25 0
BBX 23 31 1 0
BITMAP
0039c0
0039c0
007380
006300
00c600
000000
00fe00
03ff80
0fefe0
1f01f0
3e00f8
3c0078
78003c
70001c
f0001e
e0000e
e0000e
e0000e
e0000e
e0000e
e0000e
e0000e
f0001e
f0001e
78003c
3c0078
3e00f8
1f01f0
0fefe0
03ff80
00fe00
ENDCHAR
STARTCHAR Odiaeresis
ENCODING 214
SWIDTH 778 0
DWIDTH 25 0
BBX 23 29 1 0
BITMAP
01c380
01c380
01c380
000000
00fe00
03ff80
0fffe0
1f01f0
3e00f8
3c0078
78003c
70001c
70001c
f0001e
e0000e
e0000e
e0000e
e0000e
e0000e
f0001e
f0001e
70001c
78003c
3c0078
3e00f8
1f01f0
0fffe0
03ff80
00fe00
ENDCHAR
STARTCHAR multiply
ENCODING 215
SWIDTH 584 0
DWIDTH 19 0
BBX 15 15 2 1
BITMAP
4004
e00e
f01e
783c
3c78
1ff0
0fe0
07c0
07c0
0fe0
1ef0
3c78
783c
f01e
600c
ENDCHAR
STARTCHAR Rcaron
ENCODING 216
SWIDTH 722 0
DWIDTH 24 0
BBX 19 31 3 0
BITMAP
0e3800
077000
03e000
01c000
008000
000000
fffc00
ffff00
ffff80
e00780
e003c0
e001c0
e001c0
e001c0
e001c0
e003c0
e00380
e00f80
ffff00
fffe00
ffff00
e00f80
e00780
e00380
e003c0
e003c0
e003c0
e001c0
e001c0
e001c0
e001e0
ENDCHAR
STARTCHAR Uring
ENCODING 217
SWIDTH 722 0
DWIDTH 24 0
BBX 18 32 3 0
BITMAP
01c000
036000
022000
022000
036000
01c000
000000
e001c0
e001c0
e001c0
e001c0
e001c0
e001c0
e001c0
e001c0
e001c0
e001c0
e001c0
e001c0
e001c0
e001c0
e001c0
e001c0
e001c0
e001c0
e001c0
f003c0
780780
7c0f80
3fff00
1ffe00
03f000
ENDCHAR
STARTCHAR Uacute
ENCODING 218
SWIDTH 722 0
DWIDTH 24 0
BBX 18 31 3 0
BITMAP
007800
00f000
00e000
01c000
038000
000000
e001c0
e001c0
e001c0
e001c0
e001c0
e001c0
e001c0
e001c0
e001c0
e001c0
e001c0
e001c0
e001c0
e001c0
e001c0
e001c0
e001c0
e001c0
e001c0
f003c0
780780
7c0f80
3fff00
1ffe00
03f000
ENDCHAR
STARTCHAR Udoubleacute
ENCODING 219
SWIDTH 722 0
DWIDTH 24 0
BBX 18 31 3 0
BITMAP
01ce00
01ce00
039c00
031800
063000
000000
e001c0
e001c0
e001c0
e001c0
e001c0
e001c0
e001c0
e001c0
e001c0
e001c0
e001c0
e001c0
e001c0
e001c0
e001c0
e001c0
e001c0
e001c0
e001c0
f003c0
780780
7c0f80
3fff00
1ffe00
03f000
ENDCHAR
STARTCHAR Udiaeresis
ENCODING 220
SWIDTH 722 0
DWIDTH 24 0
BBX 18 30 3 0
BITMAP
0e1c00
0e1c00
0e1c00
000000
000000
e001c0
e001c0
e001c0
e001c0
e001c0
e001c0
e001c0
e001c0
e001c0
e001c0
e001c0
e001c0
e001c0
e001c0
e001c0
e001c0
e001c0
e001c0
e001c0
f003c0
780780
7c0f80
3fff00
1ffe00
03f000
ENDCHAR
STARTCHAR Yacute
ENCODING 221
SWIDTH 667 0
DWIDTH 22 0
BBX 19 31 1 0
BITMAP
003c00
007800
007000
00e000
01c000
000000
e000e0
f001e0
7001c0
7803c0
380380
3c0780
1c0f00
1e0f00
0f1e00
071c00
07bc00
03b800
03f800
01f000
01f000
00e000
00e000
00e000
00e000
00e000
00e000
00e000
00e000
00e000
00e000
ENDCHAR
STARTCHAR Tcedilla
ENCODING 222
SWIDTH 611 0
DWIDTH 20 0
BBX 19 32 0 -7
BITMAP
ffffe0
ffffe0
ffffe0
00e000
00e000
00e000
00e000
00e000
00e000
00e000
00e000
00e000
00e000
00e000
00e000
00e000
00e000
00e000
00e000
00e000
00e000
00e000
00e000
00e000
00e000
006000
006000
00f000
003800
001800
033800
01f000
ENDCHAR
STARTCHAR ssharp
ENCODING 223
SWIDTH 611 0
DWIDTH 20 0
BBX 14 25 4 0
BITMAP
0f80
3fe0
7ff0
78f0
f078
e038
e038
e038
e078
e0f0
e3e0
e3e0
e3f0
e078
e03c
e01c
e01c
e01c
e01c
e01c
e038
e078
e7f0
e7e0
e780
ENDCHAR
STARTCHAR racute
ENCODING 224
SWIDTH 333 0
DWIDTH 11 0
BBX 9 24 2 0
BITMAP
0780
0f00
0e00
1c00
3800
0000
e700
ef00
ff00
fc00
f000
f000
e000
e000
e000
e000
e000
e000
e000
e000
e000
e000
e000
e000
ENDCHAR
STARTCHAR aacute
ENCODING 225
SWIDTH 556 0
DWIDTH 18 0
BBX 16 25 1 0
BITMAP
00f0
01e0
01c0
0380
0700
0000
0000
0fe0
3ff8
3c7c
701c
701c
001c
001c
00fc
1ffc
7f9c
781c
f01c
e01c
e03c
e07c
78fc
7fdf
3f8f
ENDCHAR
STARTCHAR acircumflex
ENCODING 226
SWIDTH 556 0
DWIDTH 18 0
BBX 16 25 1 0
BITMAP
0100
0380
07c0
0ee0
1c70
0000
0000
0fe0
3ff8
3c7c
701c
701c
001c
001c
00fc
1ffc
7f9c
781c
f01c
e01c
e03c
e07c
78fc
7fdf
3f8f
ENDCHAR
STARTCHAR abreve
ENCODING 227
SWIDTH 556 0
DWIDTH 18 0
BBX 16 23 1 0
BITMAP
1010
1c30
0fe0
07c0
0000
0fe0
3ff8
3c78
703c
701c
001c
003c
01fc
1ffc
7e1c
781c
f01c
e01c
e03c
e07c
79fe
7fdf
3f8f
ENDCHAR
STARTCHAR adiaeresis
ENCODING 228
SWIDTH 556 0
DWIDTH 18 0
BBX 16 23 1 0
BITMAP
0e70
0e70
0e70
0000
0000
0fe0
3ff8
3cfc
701c
701c
001c
001c
00fc
1ffc
7f9c
781c
f01c
e01c
e03c
e07c
79fc
7fdf
3f8f
ENDCHAR
STARTCHAR lacute
ENCODING 229
SWIDTH 222 0
DWIDTH 7 0
BBX 7 31 2 0
BITMAP
1e
3c
38
70
e0
00
e0
e0
e0
e0
e0
e0
e0
e0
e0
e0
e0
e0
e0
e0
e0
e0
e0
e0
e0
e0
e0
e0
e0
e0
e0
ENDCHAR
STARTCHAR cacute
ENCODING 230
SWIDTH 500 0
DWIDTH 16 0
BBX 14 24 1 0
BITMAP
0078
00f0
00e0
01c0
0380
0000
07c0
1ff0
3ff8
383c
701c
701c
e000
e000
e000
e000
e000
e01c
e01c
701c
7838
3ff8
1ff0
07c0
ENDCHAR
STARTCHAR ccedilla
ENCODING 231
SWIDTH 500 0
DWIDTH 17 0
BBX 14 25 1 -7
BITMAP
07c0
1ff0
3ff8
3838
701c
701c
e000
e000
e000
e000
e000
e01c
e01c
7038
7878
3ff0
1fe0
0780
0300
0300
0780
01c0
00c0
19c0
0f80
ENDCHAR
STARTCHAR ccaron
ENCODING 232
SWIDTH 500 0
DWIDTH 16 0
BBX 14 24 1 0
BITMAP
1c70
0ee0
07c0
0380
0100
0000
07c0
1ff0
3ff8
383c
701c
701c
e000
e000
e000
e000
e000
e01c
e01c
701c
7838
3ff8
1ff0
07c0
ENDCHAR
STARTCHAR eacute
ENCODING 233
SWIDTH 556 0
DWIDTH 18 0
BBX 15 25 1 0
BITMAP
01e0
03c0
0380
0700
0e00
0000
0000
07c0
1ff0
3c78
781c
701c
f00e
e00e
e00e
fffe
fffe
e000
e000
e00e
700e
781c
3c7c
1ff0
0fe0
ENDCHAR
STARTCHAR eogonek
ENCODING 234
SWIDTH 556 0
DWIDTH 18 0
BBX 15 25 2 -7
BITMAP
07c0
1ff0
3ff8
783c
701c
f00e
e00e
e00e
fffe
fffe
e000
e000
f00e
701e
783c
3ff8
1ff0
07c0
0200
0600
0c00
0c00
0e60
07e0
03c0
ENDCHAR
STARTCHAR ediaeresis
ENCODING 235
SWIDTH 556 0
DWIDTH 18 0
BBX 15 23 1 0
BITMAP
1c70
1c70
1c70
0000
0000
07c0
1ff0
3c78
781c
701c
f00e
e00e
e00e
fffe
fffe
e000
e000
e00e
700e
781c
3c7c
1ff0
07c0
ENDCHAR
STARTCHAR ecaron
ENCODING 236
SWIDTH 556 0
DWIDTH 18 0
BBX 15 24 2 0
BITMAP
1c70
0ee0
07c0
0380
0100
0000
07c0
1ff0
3ff8
783c
701c
f00e
e00e
e00e
fffe
fffe
e000
e000
f00e
701e
783c
3ff8
1ff0
07c0
ENDCHAR
STARTCHAR iacute
ENCODING 237
SWIDTH 278 0
DWIDTH 9 0
BBX 7 25 2 0
BITMAP
1e
3c
38
70
e0
00
00
70
70
70
70
70
70
70
70
70
70
70
70
70
70
70
70
70
70
ENDCHAR
STARTCHAR icircumflex
ENCODING 238
SWIDTH 278 0
DWIDTH 9 0
BBX 9 25 0 0
BITMAP
0800
1c00
3e00
7700
e380
0000
0000
1c00
1c00
1c00
1c00
1c00
1c00
1c00
1c00
1c00
1c00
1c00
1c00
1c00
1c00
1c00
1c00
1c00
1c00
ENDCHAR
STARTCHAR dcaron
ENCODING 239
SWIDTH 660 0
DWIDTH 22 0
BBX 19 27 1 0
BITMAP
0000e0
0000e0
000ee0
000ee0
000e20
000e60
000ec0
000e00
000e00
07ce00
1fee00
3ffe00
7c3e00
701e00
f01e00
e00e00
e00e00
e00e00
e00e00
e00e00
e00e00
f01e00
f01e00
783e00
7ffe00
3fee00
0fce00
ENDCHAR
STARTCHAR dstroke
ENCODING 240
SWIDTH 630 0
DWIDTH 21 0
BBX 18 25 1 0
BITMAP
000e00
000e00
000e00
007fc0
007fc0
000e00
000e00
07ce00
1fee00
3ffe00
7c3e00
701e00
f01e00
e00e00
e00e00
e00e00
e00e00
e00e00
e00e00
f01e00
f01e00
783e00
7ffe00
3fee00
0fce00
ENDCHAR
STARTCHAR nacute
ENCODING 241
SWIDTH 556 0
DWIDTH 18 0
BBX 14 24 2 0
BITMAP
00f0
01e0
01c0
0380
0700
0000
e3e0
eff8
fff8
f83c
f01c
e01c
e01c
e01c
e01c
e01c
e01c
e01c
e01c
e01c
e01c
e01c
e01c
e01c
ENDCHAR
STARTCHAR ncaron
ENCODING 242
SWIDTH 556 0
DWIDTH 18 0
BBX 14 24 2 0
BITMAP
38e0
1dc0
0f80
0700
0200
0000
e3e0
eff8
fff8
f83c
f01c
e01c
e01c
e01c
e01c
e01c
e01c
e01c
e01c
e01c
e01c
e01c
e01c
e01c
ENDCHAR
STARTCHAR oacute
ENCODING 243
SWIDTH 556 0
DWIDTH 19 0
BBX 15 25 1 0
BITMAP
01e0
03c0
0380
0700
0e00
0000
0000
07c0
1ff0
3ff8
783c
701c
701c
e00e
e00e
e00e
e00e
e00e
e00e
701c
701c
783c
3ff8
1ff0
07c0
ENDCHAR
STARTCHAR ocircumflex
ENCODING 244
SWIDTH 556 0
DWIDTH 19 0
BBX 15 25 1 0
BITMAP
0100
0380
07c0
0ee0
1c70
0000
0000
07c0
1ff0
3ff8
783c
701c
701c
e00e
e00e
e00e
e00e
e00e
e00e
701c
701c
783c
3ff8
1ff0
07c0
ENDCHAR
STARTCHAR odoubleacute
ENCODING 245
SWIDTH 556 0
DWIDTH 18 0
BBX 15 24 1 0
BITMAP
039c
039c
0738
0630
0c60
0000
07c0
1ff0
3ff8
783c
701c
f01e
e00e
e00e
e00e
e00e
e00e
e00e
f01e
701c
783c
3ff8
1ff0
07c0
ENDCHAR
STARTCHAR odiaeresis
ENCODING 246
SWIDTH 556 0
DWIDTH 19 0
BBX 15 23 1 0
BITMAP
1c70
1c70
1c70
0000
0000
07c0
1ff0
3ff8
783c
701c
701c
e00e
e00e
e00e
e00e
e00e
e00e
701c
701c
783c
3ff8
1ff0
07c0
ENDCHAR
STARTCHAR division
ENCODING 247
SWIDTH 584 0
DWIDTH 19 0
BBX 15 15 2 1
BITMAP
0380
0380
0380
0000
0000
0000
fffe
fffe
fffe
0000
0000
0000
0380
0380
0380
ENDCHAR
STARTCHAR rcaron
ENCODING 248
SWIDTH 333 0
DWIDTH 11 0
BBX 9 24 1 0
BITMAP
e380
7700
3e00
1c00
0800
0000
7380
7780
7f80
7e00
7800
7800
7000
7000
7000
7000
7000
7000
7000
7000
7000
7000
7000
7000
ENDCHAR
STARTCHAR uring
ENCODING 249
SWIDTH 556 0
DWIDTH 18 0
BBX 14 25 2 0
BITMAP
0700
0d80
0880
0880
0d80
0700
0000
e01c
e01c
e01c
e01c
e01c
e01c
e01c
e01c
e01c
e01c
e01c
e01c
e01c
e03c
f07c
7ffc
7fdc
1f1c
ENDCHAR
STARTCHAR uacute
ENCODING 250
SWIDTH 556 0
DWIDTH 19 0
BBX 14 25 2 0
BITMAP
01e0
03c0
0380
0700
0e00
0000
0000
e01c
e01c
e01c
e01c
e01c
e01c
e01c
e01c
e01c
e01c
e01c
e01c
e03c
e03c
f0fc
7ffc
3fdc
0f00
ENDCHAR
STARTCHAR udoubleacute
ENCODING 251
SWIDTH 556 0
DWIDTH 18 0
BBX 14 24 2 0
BITMAP
0738
0738
0e70
0c60
18c0
0000
e01c
e01c
e01c
e01c
e01c
e01c
e01c
e01c
e01c
e01c
e01c
e01c
e01c
e03c
f07c
7ffc
7fdc
1f1c
ENDCHAR
STARTCHAR udiaeresis
ENCODING 252
SWIDTH 556 0
DWIDTH 19 0
BBX 14 23 2 0
BITMAP
1ce0
1ce0
1ce0
0000
0000
e01c
e01c
e01c
e01c
e01c
e01c
e01c
e01c
e01c
e01c
e01c
e01c
e03c
e03c
f0fc
7ffc
3fdc
0f00
ENDCHAR
STARTCHAR yacute
ENCODING 253
SWIDTH 500 0
DWIDTH 17 0
BBX 14 32 1 -7
BITMAP
00f0
01e0
01c0
0380
0700
0000
0000
e01c
e01c
e03c
7038
7038
7038
7870
3870
38f0
3ce0
1ce0
1dc0
1dc0
0fc0
0f80
0f80
0700
0700
0700
0e00
0e00
1e00
7c00
7c00
7000
ENDCHAR
STARTCHAR tcedilla
ENCODING 254
SWIDTH 278 0
DWIDTH 9 0
BBX 8 29 1 -7
BITMAP
38
38
38
38
ff
ff
ff
38
38
38
38
38
38
38
38
38
38
38
38
3c
3f
1f
18
18
3c
0e
06
ce
7c
ENDCHAR
STARTCHAR abovedot
ENCODING 255
SWIDTH 333 0
DWIDTH 11 0
BBX 3 3 4 20
BITMAP
e0
e0
e0
ENDCHAR
ENDFONT
